<?xml version="1.0" standalone="no"?>
<!DOCTYPE svg PUBLIC "-//W3C//DTD SVG 20010904//EN"
 "http://www.w3.org/TR/2001/REC-SVG-20010904/DTD/svg10.dtd">
<svg version="1.0" xmlns="http://www.w3.org/2000/svg"
 width="842.000000pt" height="842.000000pt" viewBox="0 0 842.000000 842.000000"
 preserveAspectRatio="xMidYMid meet">
<metadata>
Created by potrace 1.14, written by Peter Selinger 2001-2017
</metadata>
<g transform="translate(0.000000,842.000000) scale(0.100000,-0.100000)"
fill="#000000" stroke="none">
<path d="M3173 7047 c-12 -15 -140 -244 -171 -304 -17 -34 -27 -43 -40 -38
-13 5 -14 4 -5 -6 15 -15 -22 -94 -39 -83 -7 4 -8 3 -4 -4 6 -11 -18 -71 -33
-82 -4 -3 -13 -20 -21 -38 -7 -19 -18 -39 -24 -46 -6 -6 -24 -37 -40 -69 -16
-32 -33 -54 -39 -50 -6 3 -7 1 -3 -5 9 -15 -45 -113 -58 -105 -5 3 -6 1 -2 -5
9 -15 -24 -73 -37 -65 -6 3 -7 1 -3 -5 9 -14 -14 -63 -27 -55 -6 3 -7 2 -4 -4
3 -5 -13 -44 -37 -86 -24 -42 -46 -83 -50 -93 -5 -14 -9 -14 -24 -3 -15 13
-16 12 -4 -3 12 -15 7 -28 -32 -100 -62 -113 -62 -112 -77 -102 -14 9 -19 9
-127 12 -35 1 -61 5 -59 10 3 4 -36 6 -86 5 -51 -1 -92 -3 -92 -3 0 -2 -68 -8
-145 -14 -36 -2 -72 -7 -80 -10 -40 -13 -173 -35 -183 -29 -6 3 -7 1 -3 -5 4
-8 -1 -12 -13 -13 -24 -2 -30 -3 -53 -13 -9 -4 -22 -4 -29 0 -7 4 -9 3 -6 -3
8 -12 -69 -37 -85 -27 -6 4 -8 3 -4 -4 3 -6 -3 -14 -15 -17 -11 -4 -41 -16
-65 -26 -24 -11 -45 -18 -46 -17 -2 2 -16 -6 -33 -18 -16 -11 -55 -34 -85 -50
-30 -16 -57 -31 -60 -34 -18 -18 -105 -73 -116 -73 -7 0 -11 -3 -9 -7 5 -8
-96 -86 -107 -82 -4 1 -7 -2 -6 -6 4 -11 -116 -122 -131 -122 -7 0 -9 -4 -6
-10 3 -5 -10 -27 -30 -47 -49 -52 -138 -174 -187 -256 -30 -51 -45 -66 -57
-62 -12 5 -13 3 -4 -6 9 -9 4 -27 -21 -78 -81 -160 -146 -376 -172 -570 -15
-114 -17 -491 -3 -491 4 0 7 -10 7 -22 0 -46 45 -224 83 -335 46 -134 110
-265 184 -380 30 -45 51 -84 48 -87 -4 -3 -2 -6 4 -6 5 0 38 -36 73 -80 126
-160 323 -328 520 -441 43 -26 76 -50 72 -54 -4 -5 -2 -5 4 -2 7 4 45 -8 86
-27 157 -71 364 -126 559 -147 95 -10 359 -6 449 7 19 2 49 6 65 7 17 1 32 4
35 8 9 9 111 29 121 23 5 -3 9 0 9 6 0 7 6 10 14 7 8 -3 16 -3 18 1 4 9 179
67 196 65 7 0 11 1 8 5 -9 8 185 102 197 95 6 -3 7 -1 3 5 -3 6 1 15 11 20 13
7 81 -11 258 -71 132 -44 242 -84 243 -89 2 -4 7 -6 12 -3 11 7 224 -65 228
-77 2 -4 7 -6 12 -3 4 3 81 -21 171 -52 155 -53 169 -57 259 -57 80 0 105 5
159 27 36 14 69 23 74 20 6 -3 7 -1 3 5 -6 11 6 16 26 13 5 0 7 4 5 10 -1 6 3
13 9 16 9 3 36 -90 39 -132 0 -15 15 -33 67 -85 40 -41 58 -50 118 -65 40 -10
88 -18 108 -18 58 -1 188 33 208 54 16 18 17 18 43 -1 15 -10 40 -22 57 -26
16 -4 33 -9 39 -12 31 -19 152 -20 217 -3 55 14 70 15 113 3 72 -19 158 -18
253 4 52 12 86 15 90 9 4 -6 21 -11 37 -13 98 -10 126 -9 180 3 46 11 70 12
100 4 22 -6 51 -13 65 -16 13 -2 31 -10 39 -16 12 -9 13 -9 7 1 -4 6 -4 12 1
13 14 1 44 7 92 19 42 10 66 9 121 -5 8 -2 21 -4 28 -4 7 -1 11 -4 9 -8 -6
-10 125 -9 173 1 19 4 53 12 74 17 30 8 59 7 122 -6 69 -14 94 -14 139 -5 30
6 60 8 66 4 8 -4 9 -3 5 5 -6 8 0 10 21 6 15 -3 42 -8 58 -11 17 -3 34 -9 38
-14 5 -4 26 -4 48 1 21 5 56 12 76 15 46 7 72 18 102 41 38 29 81 76 81 89 0
7 4 14 10 16 9 3 17 33 19 66 1 7 4 11 9 8 9 -5 9 481 0 509 -4 11 -9 32 -12
48 -3 15 -14 41 -26 57 -12 16 -18 35 -14 41 4 8 3 9 -4 5 -11 -7 -32 8 -78
52 -13 13 -24 18 -24 12 0 -6 -4 -8 -10 -5 -29 18 -234 30 -224 14 8 -14 -41
-14 -86 -1 -44 13 -180 13 -190 0 -10 -12 -90 -20 -90 -8 0 6 -4 9 -9 6 -5 -4
-40 1 -77 10 -37 8 -82 14 -100 12 -17 -1 -40 4 -50 12 -17 12 -17 12 -6 0 11
-13 4 -17 -50 -30 -45 -12 -67 -13 -77 -5 -11 7 -13 7 -7 -2 5 -9 0 -13 -14
-13 -12 0 -19 4 -16 9 3 4 -6 6 -21 3 -14 -3 -23 -1 -20 4 7 11 -30 14 -175
12 -48 -1 -375 -1 -428 0 -25 0 -82 2 -127 5 -50 2 -83 0 -83 -6 0 -5 -11 -7
-25 -5 -14 3 -25 2 -25 -2 0 -4 -16 -11 -36 -14 -19 -4 -42 -10 -50 -13 -9 -3
-14 1 -14 11 0 10 -11 33 -24 53 -14 19 -22 43 -19 52 4 13 3 13 -5 2 -8 -11
-12 -10 -21 8 -7 11 -18 21 -26 21 -8 0 -18 7 -23 15 -11 21 -127 52 -217 59
-11 1 -45 -4 -75 -10 -30 -7 -56 -11 -58 -9 -5 4 32 79 43 87 6 4 7 8 3 8 -4
0 5 28 21 63 15 34 36 81 46 105 10 23 23 42 28 42 4 0 6 4 3 9 -8 12 191 463
210 478 9 6 14 13 13 15 -6 7 48 77 55 71 4 -4 4 0 0 10 -4 11 0 19 10 23 9 3
14 10 11 14 -3 5 2 13 11 18 9 5 16 13 15 18 -1 15 141 224 149 219 3 -2 7 1
7 8 0 21 35 67 46 60 6 -3 7 -1 3 6 -5 7 1 20 13 30 11 10 19 20 16 23 -2 2 9
19 25 36 16 18 26 32 22 32 -4 0 0 6 8 13 8 7 21 24 29 40 8 15 18 27 23 27 5
0 13 12 18 26 6 15 14 22 22 18 6 -4 8 -3 5 3 -4 6 4 22 18 37 13 15 24 27 22
29 -6 7 33 48 42 43 6 -4 9 -1 5 7 -4 12 31 62 128 182 5 6 22 28 39 50 17 22
35 39 40 38 5 -2 8 1 6 6 -1 5 8 23 21 40 20 28 26 30 40 19 15 -11 15 -11 5
2 -10 13 -7 22 13 48 14 18 29 30 34 27 5 -3 12 0 16 6 4 8 3 9 -4 5 -27 -17
-8 13 43 69 31 33 63 70 71 83 9 13 20 20 27 16 7 -4 9 -4 5 1 -10 10 50 85
65 82 7 -1 11 3 10 9 -3 18 117 145 129 137 7 -3 8 -1 4 6 -10 15 13 43 28 34
6 -3 8 -2 3 2 -9 10 92 114 107 111 6 -2 8 -1 3 2 -4 2 16 30 44 63 28 32 56
56 62 52 5 -3 7 -1 4 4 -6 10 25 46 34 41 2 -2 3 -1 1 1 -5 9 51 60 60 55 4
-3 8 0 8 6 0 6 4 8 10 5 6 -3 7 1 4 9 -3 9 -2 16 3 16 5 0 43 34 84 75 41 42
80 73 87 70 7 -3 11 -1 7 4 -7 13 125 132 138 124 5 -3 7 -2 4 4 -11 18 39 56
65 48 18 -5 20 -4 8 5 -13 9 -9 16 24 45 21 19 43 32 49 28 6 -3 7 -1 4 4 -9
14 19 37 34 27 7 -4 9 -3 5 4 -3 6 12 25 34 43 39 32 40 33 19 41 -13 5 -39
11 -58 14 -45 6 -283 50 -376 69 -38 8 -105 20 -147 26 -42 7 -75 15 -73 18 1
3 -20 7 -48 8 -29 1 -53 6 -55 11 -1 5 -14 7 -28 4 -17 -3 -30 2 -40 14 -9 11
-12 13 -8 5 6 -11 1 -13 -27 -7 -19 4 -41 9 -49 10 -8 2 -38 7 -67 11 -31 4
-51 11 -49 18 1 7 1 9 -1 5 -6 -11 -61 -10 -67 1 -3 5 -16 7 -28 3 -16 -4 -19
-2 -13 8 5 9 4 11 -4 6 -14 -9 -162 14 -156 24 3 5 -3 6 -12 4 -10 -3 -90 9
-178 26 -88 17 -174 33 -190 35 -27 4 -277 51 -315 60 -8 2 -39 6 -67 10 -29
4 -51 11 -48 15 3 5 -3 6 -12 4 -15 -4 -117 13 -193 31 -8 2 -28 4 -43 4 -16
1 -26 5 -22 11 3 5 0 8 -7 5 -7 -3 -36 -1 -63 5 -28 6 -70 12 -94 15 -24 3
-48 8 -53 11 -4 3 -29 7 -55 10 -26 3 -52 9 -58 14 -7 5 -14 8 -17 5 -3 -3
-76 9 -164 25 -87 17 -168 32 -179 34 -149 23 -442 83 -438 90 4 5 1 6 -6 2
-10 -7 -231 27 -271 41 -8 3 -24 6 -35 8 -66 6 -283 50 -280 55 3 4 -6 6 -19
5 -21 -3 -127 14 -192 30 -12 2 -26 -1 -31 -8z"/>
<path d="M3836 6982 c-3 -5 1 -9 9 -9 8 0 12 4 9 9 -3 4 -7 8 -9 8 -2 0 -6 -4
-9 -8z"/>
<path d="M4150 6916 c0 -2 8 -10 18 -17 15 -13 16 -12 3 4 -13 16 -21 21 -21
13z"/>
<path d="M6193 6545 c0 -8 4 -12 9 -9 5 3 6 10 3 15 -9 13 -12 11 -12 -6z"/>
<path d="M7029 6543 c-13 -16 -12 -17 4 -4 9 7 17 15 17 17 0 8 -8 3 -21 -13z"/>
<path d="M2196 6062 c-3 -5 1 -9 9 -9 8 0 12 4 9 9 -3 4 -7 8 -9 8 -2 0 -6 -4
-9 -8z"/>
<path d="M7386 6062 c-3 -5 1 -9 9 -9 8 0 12 4 9 9 -3 4 -7 8 -9 8 -2 0 -6 -4
-9 -8z"/>
<path d="M7466 5982 c-3 -5 1 -9 9 -9 8 0 12 4 9 9 -3 4 -7 8 -9 8 -2 0 -6 -4
-9 -8z"/>
<path d="M7370 5906 c0 -2 7 -7 16 -10 8 -3 12 -2 9 4 -6 10 -25 14 -25 6z"/>
<path d="M7507 5870 c-26 -17 -52 -28 -58 -25 -5 4 -8 1 -7 -7 2 -9 -7 -12
-27 -11 -22 2 -26 0 -15 -7 17 -11 22 -6 -70 -66 -41 -26 -77 -51 -80 -54 -3
-3 -27 -22 -55 -41 -27 -18 -52 -36 -55 -39 -29 -30 -92 -70 -102 -64 -7 4
-10 4 -6 0 8 -9 -8 -26 -79 -85 -30 -24 -53 -37 -53 -29 0 7 -6 2 -13 -12 -8
-14 -19 -24 -26 -22 -7 1 -10 -2 -7 -7 9 -14 -33 -41 -53 -34 -11 3 -12 2 -4
-4 10 -7 8 -13 -7 -26 -25 -21 -137 -121 -172 -153 -16 -14 -33 -22 -40 -18
-7 5 -8 3 -4 -5 11 -18 -105 -135 -117 -118 -6 8 -7 7 -4 -4 4 -11 -34 -55
-116 -136 -67 -66 -122 -122 -122 -125 0 -12 -107 -118 -115 -113 -4 3 -7 -3
-6 -13 0 -10 -5 -16 -14 -14 -8 2 -12 0 -8 -4 4 -4 -6 -24 -23 -45 -25 -32
-34 -37 -49 -29 -13 7 -21 7 -25 0 -4 -6 -3 -10 2 -9 22 4 32 -2 26 -17 -3 -8
-12 -13 -20 -10 -8 3 -11 1 -8 -4 3 -5 -57 -88 -134 -184 -76 -96 -146 -184
-154 -196 -9 -12 -20 -19 -26 -16 -6 4 -9 1 -6 -6 7 -17 -199 -304 -215 -300
-6 1 -8 -2 -5 -8 4 -6 -9 -36 -29 -65 -40 -60 -45 -77 -18 -52 10 10 22 14 27
10 4 -5 5 -3 2 3 -9 15 62 106 76 97 5 -3 7 -2 4 4 -11 17 239 307 256 296 6
-4 7 -1 2 6 -9 16 73 103 89 94 6 -3 8 -3 4 2 -11 12 11 47 25 39 7 -4 9 -3 4
1 -10 11 413 436 426 428 6 -3 7 -1 3 5 -3 6 2 15 12 21 10 5 39 29 63 53 95
91 130 119 141 112 6 -4 8 -3 5 3 -9 14 121 125 135 117 6 -4 8 -2 4 4 -3 6 8
21 26 33 18 13 36 27 39 32 4 6 14 7 22 4 11 -4 14 -1 11 7 -3 7 2 19 11 26 8
7 15 9 15 4 0 -5 7 2 16 14 9 14 22 21 31 18 8 -3 11 -2 8 3 -3 5 5 17 17 25
17 12 25 13 37 3 14 -11 14 -10 2 5 -11 15 -11 19 4 24 9 4 29 18 44 31 30 29
423 293 434 293 5 0 5 -5 1 -12 -5 -7 -3 -8 5 -4 7 5 10 11 7 14 -10 9 33 34
46 26 6 -4 8 -3 5 3 -6 10 40 38 56 35 4 -1 7 2 7 8 0 14 59 42 72 34 6 -4 8
-3 5 3 -4 6 51 41 128 83 74 39 135 73 135 75 0 1 -36 17 -80 35 -43 19 -76
38 -73 43 3 6 1 7 -5 3 -9 -6 -59 11 -72 24 -3 3 -12 7 -20 9 -8 2 -22 5 -30
7 -8 2 -37 -9 -63 -26z"/>
<path d="M7176 5878 c3 -4 11 -5 19 -1 21 7 19 12 -4 10 -11 0 -18 -5 -15 -9z"/>
<path d="M7273 5865 c0 -8 4 -15 9 -15 4 0 8 4 8 9 0 6 -4 12 -8 15 -5 3 -9
-1 -9 -9z"/>
<path d="M7134 5816 c1 -8 5 -18 8 -22 4 -3 5 1 4 10 -1 8 -5 18 -8 22 -4 3
-5 -1 -4 -10z"/>
<path d="M7234 5802 c4 -3 14 -7 22 -8 9 -1 13 0 10 4 -4 3 -14 7 -22 8 -9 1
-13 0 -10 -4z"/>
<path d="M7095 5771 c-3 -5 -2 -12 3 -15 5 -3 9 1 9 9 0 17 -3 19 -12 6z"/>
<path d="M7174 5756 c1 -8 5 -18 8 -22 4 -3 5 1 4 10 -1 8 -5 18 -8 22 -4 3
-5 -1 -4 -10z"/>
<path d="M7206 5758 c3 -5 10 -6 15 -3 13 9 11 12 -6 12 -8 0 -12 -4 -9 -9z"/>
<path d="M7256 5762 c-3 -5 1 -9 9 -9 8 0 12 4 9 9 -3 4 -7 8 -9 8 -2 0 -6 -4
-9 -8z"/>
<path d="M7906 5742 c-3 -5 1 -9 9 -9 8 0 15 4 15 9 0 4 -4 8 -9 8 -6 0 -12
-4 -15 -8z"/>
<path d="M6973 5723 c4 -3 1 -13 -6 -22 -11 -14 -10 -14 5 -2 16 12 16 31 1
31 -4 0 -3 -3 0 -7z"/>
<path d="M6995 5679 c-3 -4 2 -6 10 -5 21 3 28 13 10 13 -9 0 -18 -4 -20 -8z"/>
<path d="M7115 5679 c-3 -4 2 -6 10 -5 21 3 28 13 10 13 -9 0 -18 -4 -20 -8z"/>
<path d="M1360 5660 c-9 -6 -10 -10 -3 -10 6 0 15 5 18 10 8 12 4 12 -15 0z"/>
<path d="M6890 5639 c0 -5 5 -7 10 -4 6 3 10 8 10 11 0 2 -4 4 -10 4 -5 0 -10
-5 -10 -11z"/>
<path d="M7055 5640 c3 -5 8 -10 11 -10 2 0 4 5 4 10 0 6 -5 10 -11 10 -5 0
-7 -4 -4 -10z"/>
<path d="M6935 5600 c-3 -5 -1 -10 4 -10 6 0 11 5 11 10 0 6 -2 10 -4 10 -3 0
-8 -4 -11 -10z"/>
<path d="M6990 5605 c0 -7 30 -13 34 -7 3 4 -4 9 -15 9 -10 1 -19 0 -19 -2z"/>
<path d="M7635 5591 c-3 -5 -2 -12 3 -15 5 -3 9 1 9 9 0 17 -3 19 -12 6z"/>
<path d="M6915 5551 c-3 -5 -2 -12 3 -15 5 -3 9 1 9 9 0 17 -3 19 -12 6z"/>
<path d="M7840 5502 c-19 -8 -52 -23 -72 -34 -21 -11 -43 -16 -50 -12 -6 4 -8
3 -5 -3 8 -13 -20 -26 -35 -16 -6 3 -8 2 -5 -4 6 -10 -58 -45 -77 -43 -5 1
-12 -3 -15 -8 -11 -17 -132 -73 -143 -66 -6 4 -8 3 -5 -4 4 -6 -25 -28 -70
-53 -43 -24 -86 -48 -95 -54 -9 -5 -37 -23 -62 -38 -26 -15 -51 -25 -56 -22
-6 4 -9 1 -8 -7 2 -7 -5 -12 -14 -12 -10 1 -16 -2 -13 -6 6 -10 -154 -112
-166 -104 -5 3 -8 0 -7 -8 2 -7 -5 -12 -14 -12 -10 1 -16 -2 -13 -6 3 -5 -8
-18 -25 -30 -16 -12 -30 -18 -30 -14 0 4 -6 1 -12 -8 -7 -8 -74 -60 -148 -115
-74 -55 -155 -116 -180 -136 -24 -20 -48 -33 -54 -30 -5 3 -6 1 -2 -6 4 -6 0
-14 -11 -18 -10 -4 -28 -18 -39 -31 -14 -15 -27 -22 -34 -17 -8 5 -11 4 -7 -2
4 -6 -35 -46 -85 -89 -136 -116 -229 -202 -358 -330 -64 -63 -120 -111 -125
-107 -4 4 -5 3 -2 -3 8 -14 -26 -47 -37 -37 -4 5 -6 3 -4 -3 2 -8 -119 -143
-308 -341 -23 -24 -39 -43 -36 -43 3 0 -3 -10 -14 -22 -19 -23 -19 -23 2 -5
11 9 24 14 29 10 4 -5 5 -3 2 3 -9 15 19 38 34 28 7 -4 9 -3 6 3 -4 6 24 39
61 74 111 106 230 210 236 207 3 -2 13 7 21 20 9 12 21 19 27 16 6 -4 8 -3 5
3 -9 15 415 362 435 355 4 -1 8 2 8 7 0 11 95 81 110 81 6 0 10 4 10 9 0 5 13
17 29 28 16 10 76 50 134 90 58 39 108 69 111 66 3 -4 6 -2 6 4 0 16 79 65 92
57 6 -4 8 -3 5 3 -9 14 277 188 293 178 6 -3 9 -1 8 5 -4 14 232 141 246 133
5 -3 6 -2 3 4 -4 6 25 25 66 43 39 18 124 58 187 88 63 30 124 55 136 56 12 0
20 3 18 5 -5 5 117 59 143 63 10 2 20 6 23 9 11 13 240 90 249 84 6 -3 8 0 5
8 -3 8 -16 19 -30 26 -15 6 -22 16 -18 23 4 7 3 8 -4 4 -16 -9 -154 73 -145
87 3 6 1 7 -6 3 -6 -4 -23 1 -39 12 -25 18 -30 18 -62 4z"/>
<path d="M6894 5496 c1 -8 5 -18 8 -22 4 -3 5 1 4 10 -1 8 -5 18 -8 22 -4 3
-5 -1 -4 -10z"/>
<path d="M6853 5475 c0 -8 4 -12 9 -9 5 3 6 10 3 15 -9 13 -12 11 -12 -6z"/>
<path d="M7386 5458 c3 -5 10 -6 15 -3 13 9 11 12 -6 12 -8 0 -12 -4 -9 -9z"/>
<path d="M6730 5440 c0 -5 5 -10 11 -10 5 0 7 5 4 10 -3 6 -8 10 -11 10 -2 0
-4 -4 -4 -10z"/>
<path d="M6856 5442 c-3 -5 1 -9 9 -9 8 0 12 4 9 9 -3 4 -7 8 -9 8 -2 0 -6 -4
-9 -8z"/>
<path d="M7326 5422 c-3 -5 1 -9 9 -9 8 0 12 4 9 9 -3 4 -7 8 -9 8 -2 0 -6 -4
-9 -8z"/>
<path d="M7516 5418 c3 -5 10 -6 15 -3 13 9 11 12 -6 12 -8 0 -12 -4 -9 -9z"/>
<path d="M6693 5395 c0 -8 4 -12 9 -9 5 3 6 10 3 15 -9 13 -12 11 -12 -6z"/>
<path d="M6695 5359 c-3 -4 2 -6 10 -5 21 3 28 13 10 13 -9 0 -18 -4 -20 -8z"/>
<path d="M7167 5339 c7 -7 15 -10 18 -7 3 3 -2 9 -12 12 -14 6 -15 5 -6 -5z"/>
<path d="M6715 5331 c-3 -5 -2 -12 3 -15 5 -3 9 1 9 9 0 17 -3 19 -12 6z"/>
<path d="M6610 5320 c0 -5 5 -10 11 -10 5 0 7 5 4 10 -3 6 -8 10 -11 10 -2 0
-4 -4 -4 -10z"/>
<path d="M676 5307 c3 -10 9 -15 12 -12 3 3 0 11 -7 18 -10 9 -11 8 -5 -6z"/>
<path d="M6635 5240 c3 -5 8 -10 11 -10 2 0 4 5 4 10 0 6 -5 10 -11 10 -5 0
-7 -4 -4 -10z"/>
<path d="M6490 5219 c0 -5 5 -7 10 -4 6 3 10 8 10 11 0 2 -4 4 -10 4 -5 0 -10
-5 -10 -11z"/>
<path d="M7085 5220 c-3 -6 1 -7 9 -4 18 7 21 14 7 14 -6 0 -13 -4 -16 -10z"/>
<path d="M6476 5187 c3 -10 9 -15 12 -12 3 3 0 11 -7 18 -10 9 -11 8 -5 -6z"/>
<path d="M7789 5103 c-13 -16 -12 -17 4 -4 16 13 21 21 13 21 -2 0 -10 -8 -17
-17z"/>
<path d="M6450 5079 c0 -5 5 -7 10 -4 6 3 10 8 10 11 0 2 -4 4 -10 4 -5 0 -10
-5 -10 -11z"/>
<path d="M6806 5082 c-3 -5 1 -9 9 -9 8 0 12 4 9 9 -3 4 -7 8 -9 8 -2 0 -6 -4
-9 -8z"/>
<path d="M6870 5079 c0 -5 5 -7 10 -4 6 3 10 8 10 11 0 2 -4 4 -10 4 -5 0 -10
-5 -10 -11z"/>
<path d="M6374 5016 c1 -8 5 -18 8 -22 4 -3 5 1 4 10 -1 8 -5 18 -8 22 -4 3
-5 -1 -4 -10z"/>
<path d="M6820 5020 c-9 -6 -10 -10 -3 -10 6 0 15 5 18 10 8 12 4 12 -15 0z"/>
<path d="M6330 4999 c0 -5 5 -7 10 -4 6 3 10 8 10 11 0 2 -4 4 -10 4 -5 0 -10
-5 -10 -11z"/>
<path d="M6675 4960 c-3 -5 -1 -10 4 -10 6 0 11 5 11 10 0 6 -2 10 -4 10 -3 0
-8 -4 -11 -10z"/>
<path d="M6305 4940 c-3 -6 1 -7 9 -4 18 7 21 14 7 14 -6 0 -13 -4 -16 -10z"/>
<path d="M6255 4880 c3 -5 8 -10 11 -10 2 0 4 5 4 10 0 6 -5 10 -11 10 -5 0
-7 -4 -4 -10z"/>
<path d="M6595 4849 c-4 -6 -5 -12 -2 -15 2 -3 7 2 10 11 7 17 1 20 -8 4z"/>
<path d="M6035 4679 c-3 -4 2 -6 10 -5 21 3 28 13 10 13 -9 0 -18 -4 -20 -8z"/>
<path d="M6013 4645 c0 -8 4 -12 9 -9 5 3 6 10 3 15 -9 13 -12 11 -12 -6z"/>
<path d="M6230 4546 c0 -2 7 -7 16 -10 8 -3 12 -2 9 4 -6 10 -25 14 -25 6z"/>
<path d="M6220 4506 c0 -2 8 -10 18 -17 15 -13 16 -12 3 4 -13 16 -21 21 -21
13z"/>
<path d="M5816 4358 c3 -4 11 -5 19 -1 21 7 19 12 -4 10 -11 0 -18 -5 -15 -9z"/>
<path d="M5336 3657 c3 -10 9 -15 12 -12 3 3 0 11 -7 18 -10 9 -11 8 -5 -6z"/>
<path d="M5390 3421 c0 -6 4 -13 10 -16 6 -3 7 1 4 9 -7 18 -14 21 -14 7z"/>
<path d="M5187 3219 c7 -7 15 -10 18 -7 3 3 -2 9 -12 12 -14 6 -15 5 -6 -5z"/>
<path d="M5114 3166 c1 -8 5 -18 8 -22 4 -3 5 1 4 10 -1 8 -5 18 -8 22 -4 3
-5 -1 -4 -10z"/>
<path d="M5236 3102 c-3 -5 1 -9 9 -9 8 0 12 4 9 9 -3 4 -7 8 -9 8 -2 0 -6 -4
-9 -8z"/>
<path d="M5056 3082 c-3 -5 1 -9 9 -9 8 0 12 4 9 9 -3 4 -7 8 -9 8 -2 0 -6 -4
-9 -8z"/>
<path d="M5096 3042 c-3 -5 1 -9 9 -9 8 0 12 4 9 9 -3 4 -7 8 -9 8 -2 0 -6 -4
-9 -8z"/>
<path d="M5055 3020 c-3 -5 -1 -10 4 -10 6 0 11 5 11 10 0 6 -2 10 -4 10 -3 0
-8 -4 -11 -10z"/>
<path d="M5135 3020 c-3 -5 -1 -10 4 -10 6 0 11 5 11 10 0 6 -2 10 -4 10 -3 0
-8 -4 -11 -10z"/>
<path d="M5094 2956 c1 -8 5 -18 8 -22 4 -3 5 1 4 10 -1 8 -5 18 -8 22 -4 3
-5 -1 -4 -10z"/>
<path d="M5035 2930 c-4 -6 -11 -7 -17 -4 -7 4 -8 2 -4 -5 6 -9 11 -9 22 0 14
11 18 19 10 19 -3 0 -8 -5 -11 -10z"/>
<path d="M5673 2905 c0 -8 4 -12 9 -9 5 3 6 10 3 15 -9 13 -12 11 -12 -6z"/>
<path d="M5356 2902 c-3 -5 1 -9 9 -9 8 0 12 4 9 9 -3 4 -7 8 -9 8 -2 0 -6 -4
-9 -8z"/>
<path d="M7040 2740 c-9 -6 -10 -10 -3 -10 6 0 15 5 18 10 8 12 4 12 -15 0z"/>
<path d="M7830 2636 c0 -2 8 -10 18 -17 15 -13 16 -12 3 4 -13 16 -21 21 -21
13z"/>
</g>
</svg>
