<svg xmlns="http://www.w3.org/2000/svg" version="1.1" width="512px" height="512px" style="shape-rendering:geometricPrecision; text-rendering:geometricPrecision; image-rendering:optimizeQuality; fill-rule:evenodd; clip-rule:evenodd" xmlns:xlink="http://www.w3.org/1999/xlink">
<g><path style="opacity:0.996" fill="#3f86fa" d="M 257.5,37.5 C 294.861,55.3458 332.194,73.5125 369.5,92C 396.093,105.029 422.427,118.529 448.5,132.5C 416.113,147.742 383.446,162.409 350.5,176.5C 319.283,159.728 288.283,142.728 257.5,125.5C 257.5,96.1667 257.5,66.8333 257.5,37.5 Z"/></g>
<g><path style="opacity:0.998" fill="#316ddd" d="M 257.5,37.5 C 257.5,66.8333 257.5,96.1667 257.5,125.5C 223.311,142.761 188.978,159.761 154.5,176.5C 122.714,162.626 91.047,148.459 59.5,134C 58.2068,133.51 56.8734,133.343 55.5,133.5C 55.281,132.325 55.6143,131.325 56.5,130.5C 123.413,99.2089 190.413,68.2089 257.5,37.5 Z"/></g>
<g><path style="opacity:0.999" fill="#316ddd" d="M 257.5,381.5 C 257.5,412.167 257.5,442.833 257.5,473.5C 184.625,440.064 111.958,406.064 39.5,371.5C 38.1667,299.833 38.1667,228.167 39.5,156.5C 73.5905,172.378 107.59,188.544 141.5,205C 142.33,245.096 142.83,285.262 143,325.5C 180.958,344.562 219.125,363.229 257.5,381.5 Z"/></g>
<g><path style="opacity:0.998" fill="#3f86fa" d="M 257.5,473.5 C 257.5,442.833 257.5,412.167 257.5,381.5C 293.235,364.8 328.902,347.8 364.5,330.5C 365.71,319.16 366.71,307.827 367.5,296.5C 367.167,296.167 366.833,295.833 366.5,295.5C 330.833,312.333 295.167,329.167 259.5,346C 258.251,346.74 257.251,346.573 256.5,345.5C 257.498,313.671 257.832,281.671 257.5,249.5C 325.829,220.838 393.829,191.338 461.5,161C 465.021,159.326 468.687,158.16 472.5,157.5C 472.833,228.836 472.5,300.17 471.5,371.5C 400.377,406.063 329.043,440.063 257.5,473.5 Z"/></g>
<g><path style="opacity:1" fill="#316ddd" d="M 257.5,249.5 C 257.832,281.671 257.498,313.671 256.5,345.5C 229.494,333.581 202.66,321.247 176,308.5C 175.5,276.168 175.333,243.835 175.5,211.5C 203.402,223.12 230.735,235.787 257.5,249.5 Z"/></g>
</svg>
